<svg width="250" height="47" viewBox="0 0 250 47" fill="none" xmlns="http://www.w3.org/2000/svg">
<path d="M0.0560002 0.688H15.288C17.464 0.688 19.5547 0.901333 21.56 1.328C23.608 1.75467 25.4 2.48 26.936 3.504C28.472 4.48533 29.688 5.82933 30.584 7.536C31.5227 9.2 31.992 11.2907 31.992 13.808C31.992 16.6667 31.5013 18.9707 30.52 20.72C29.5387 22.4693 28.216 23.8347 26.552 24.816C24.888 25.7547 22.9467 26.3947 20.728 26.736C18.552 27.0773 16.2693 27.248 13.88 27.248H8.12V46H0.0560002V0.688ZM12.984 20.336C14.136 20.336 15.3307 20.2933 16.568 20.208C17.8053 20.1227 18.936 19.8667 19.96 19.44C21.0267 19.0133 21.88 18.3733 22.52 17.52C23.2027 16.6667 23.544 15.472 23.544 13.936C23.544 12.528 23.2453 11.4187 22.648 10.608C22.0507 9.75467 21.2827 9.11467 20.344 8.688C19.4053 8.21866 18.36 7.92 17.208 7.792C16.056 7.664 14.9467 7.6 13.88 7.6H8.12V20.336H12.984ZM38.477 15.28H46.157V20.144H46.285C47.1383 18.352 48.3543 16.9653 49.933 15.984C51.5117 15.0027 53.325 14.512 55.373 14.512C55.8423 14.512 56.2903 14.5547 56.717 14.64C57.1863 14.7253 57.6557 14.832 58.125 14.96V22.384C57.485 22.2133 56.845 22.0853 56.205 22C55.6077 21.872 55.0103 21.808 54.413 21.808C52.621 21.808 51.1703 22.1493 50.061 22.832C48.9943 23.472 48.1623 24.2187 47.565 25.072C47.0103 25.9253 46.6263 26.7787 46.413 27.632C46.2423 28.4853 46.157 29.1253 46.157 29.552V46H38.477V15.28ZM60.691 30.64C60.691 28.208 61.1177 26.0107 61.971 24.048C62.867 22.0427 64.0617 20.336 65.555 18.928C67.0483 17.52 68.819 16.432 70.867 15.664C72.915 14.896 75.091 14.512 77.395 14.512C79.699 14.512 81.875 14.896 83.923 15.664C85.971 16.432 87.7417 17.52 89.235 18.928C90.7283 20.336 91.9017 22.0427 92.755 24.048C93.651 26.0107 94.099 28.208 94.099 30.64C94.099 33.072 93.651 35.2907 92.755 37.296C91.9017 39.2587 90.7283 40.944 89.235 42.352C87.7417 43.76 85.971 44.848 83.923 45.616C81.875 46.384 79.699 46.768 77.395 46.768C75.091 46.768 72.915 46.384 70.867 45.616C68.819 44.848 67.0483 43.76 65.555 42.352C64.0617 40.944 62.867 39.2587 61.971 37.296C61.1177 35.2907 60.691 33.072 60.691 30.64ZM68.371 30.64C68.371 31.8347 68.563 32.9867 68.947 34.096C69.3737 35.2053 69.971 36.1867 70.739 37.04C71.5497 37.8933 72.5097 38.576 73.619 39.088C74.7283 39.6 75.987 39.856 77.395 39.856C78.803 39.856 80.0617 39.6 81.171 39.088C82.2803 38.576 83.219 37.8933 83.987 37.04C84.7977 36.1867 85.395 35.2053 85.779 34.096C86.2057 32.9867 86.419 31.8347 86.419 30.64C86.419 29.4453 86.2057 28.2933 85.779 27.184C85.395 26.0747 84.7977 25.0933 83.987 24.24C83.219 23.3867 82.2803 22.704 81.171 22.192C80.0617 21.68 78.803 21.424 77.395 21.424C75.987 21.424 74.7283 21.68 73.619 22.192C72.5097 22.704 71.5497 23.3867 70.739 24.24C69.971 25.0933 69.3737 26.0747 68.947 27.184C68.563 28.2933 68.371 29.4453 68.371 30.64ZM96.9375 0.688H105.77L114.282 33.328H114.41L124.586 0.688H132.522L142.506 33.328H142.634L151.53 0.688H159.722L146.538 46H138.858L128.362 11.504H128.234L117.738 46H110.314L96.9375 0.688ZM180.927 41.776H180.735C179.626 43.5253 178.218 44.8053 176.511 45.616C174.804 46.384 172.927 46.768 170.879 46.768C169.471 46.768 168.084 46.576 166.719 46.192C165.396 45.808 164.202 45.232 163.135 44.464C162.111 43.696 161.279 42.736 160.639 41.584C159.999 40.432 159.679 39.088 159.679 37.552C159.679 35.888 159.978 34.48 160.575 33.328C161.172 32.1333 161.962 31.152 162.943 30.384C163.967 29.5733 165.14 28.9333 166.463 28.464C167.786 27.9947 169.151 27.6533 170.559 27.44C172.01 27.184 173.46 27.0347 174.911 26.992C176.362 26.9067 177.727 26.864 179.007 26.864H180.927V26.032C180.927 24.112 180.266 22.6827 178.943 21.744C177.62 20.7627 175.935 20.272 173.887 20.272C172.266 20.272 170.751 20.5707 169.343 21.168C167.935 21.7227 166.719 22.4907 165.695 23.472L161.663 19.44C163.37 17.6907 165.354 16.432 167.615 15.664C169.919 14.896 172.287 14.512 174.719 14.512C176.895 14.512 178.73 14.768 180.223 15.28C181.716 15.7493 182.954 16.368 183.935 17.136C184.916 17.904 185.663 18.8 186.175 19.824C186.73 20.8053 187.114 21.808 187.327 22.832C187.583 23.856 187.732 24.8587 187.775 25.84C187.818 26.7787 187.839 27.6107 187.839 28.336V46H180.927V41.776ZM180.479 32.24H178.879C177.812 32.24 176.618 32.2827 175.295 32.368C173.972 32.4533 172.714 32.6667 171.519 33.008C170.367 33.3067 169.386 33.776 168.575 34.416C167.764 35.0133 167.359 35.8667 167.359 36.976C167.359 37.7013 167.508 38.32 167.807 38.832C168.148 39.3013 168.575 39.7067 169.087 40.048C169.599 40.3893 170.175 40.6453 170.815 40.816C171.455 40.944 172.095 41.008 172.735 41.008C175.38 41.008 177.322 40.3893 178.559 39.152C179.839 37.872 180.479 36.144 180.479 33.968V32.24ZM196.102 15.28H203.782V20.144H203.91C204.763 18.352 205.979 16.9653 207.558 15.984C209.137 15.0027 210.95 14.512 212.998 14.512C213.467 14.512 213.915 14.5547 214.342 14.64C214.811 14.7253 215.281 14.832 215.75 14.96V22.384C215.11 22.2133 214.47 22.0853 213.83 22C213.233 21.872 212.635 21.808 212.038 21.808C210.246 21.808 208.795 22.1493 207.686 22.832C206.619 23.472 205.787 24.2187 205.19 25.072C204.635 25.9253 204.251 26.7787 204.038 27.632C203.867 28.4853 203.782 29.1253 203.782 29.552V46H196.102V15.28ZM225.996 33.328C226.252 35.632 227.148 37.424 228.684 38.704C230.22 39.984 232.076 40.624 234.252 40.624C236.172 40.624 237.772 40.24 239.052 39.472C240.375 38.6613 241.527 37.6587 242.508 36.464L248.012 40.624C246.22 42.8427 244.215 44.4213 241.996 45.36C239.777 46.2987 237.452 46.768 235.02 46.768C232.716 46.768 230.54 46.384 228.492 45.616C226.444 44.848 224.673 43.76 223.18 42.352C221.687 40.944 220.492 39.2587 219.596 37.296C218.743 35.2907 218.316 33.072 218.316 30.64C218.316 28.208 218.743 26.0107 219.596 24.048C220.492 22.0427 221.687 20.336 223.18 18.928C224.673 17.52 226.444 16.432 228.492 15.664C230.54 14.896 232.716 14.512 235.02 14.512C237.153 14.512 239.095 14.896 240.844 15.664C242.636 16.3893 244.151 17.456 245.388 18.864C246.668 20.272 247.649 22.0213 248.332 24.112C249.057 26.16 249.42 28.528 249.42 31.216V33.328H225.996ZM241.74 27.568C241.697 25.3067 240.993 23.536 239.628 22.256C238.263 20.9333 236.364 20.272 233.932 20.272C231.628 20.272 229.793 20.9333 228.428 22.256C227.105 23.5787 226.295 25.3493 225.996 27.568H241.74Z" fill="url(#paint0_linear_18_615)"/>
<defs>
<linearGradient id="paint0_linear_18_615" x1="189" y1="-10" x2="17" y2="-10" gradientUnits="userSpaceOnUse">
<stop stop-color="white"/>
<stop offset="1" stop-color="#0BA5EC"/>
</linearGradient>
</defs>
</svg>
